<?xml version="1.0" encoding="UTF-8" standalone="no"?>
<svg width="579px" height="133px" viewBox="0 0 579 133" version="1.1" xmlns="http://www.w3.org/2000/svg" xmlns:xlink="http://www.w3.org/1999/xlink" xmlns:sketch="http://www.bohemiancoding.com/sketch/ns">
    <!-- Generator: Sketch 3.0.4 (8053) - http://www.bohemiancoding.com/sketch -->
    <title>logo_edificapro 2</title>
    <desc>Created with Sketch.</desc>
    <defs></defs>
    <g id="Page-1" stroke="none" stroke-width="1" fill="none" fill-rule="evenodd" sketch:type="MSPage">
        <g id="logo_edificapro_white" sketch:type="MSLayerGroup">
            <g id="Layer_2" sketch:type="MSShapeGroup">
                <g id="Capa_4_1_" transform="translate(140.000000, 31.000000)">
                    <g id="Group">
                        <path d="M25.1,18.8 C39.1,18.8 46.5,29.1 46.5,41.9 C46.5,43.2 46.2,46 46.2,46 L10.2,46 C10.7,56.9 18.4,62.3 27.2,62.3 C35.7,62.3 41.9,56.5 41.9,56.5 L45.8,63.4 C45.8,63.4 38.4,70.4 26.6,70.4 C11,70.4 0.4,59.2 0.4,44.5 C0.3,28.9 11,18.8 25.1,18.8 L25.1,18.8 Z M36.8,38.9 C36.5,30.4 31.3,26.3 24.9,26.3 C17.7,26.3 11.8,30.8 10.4,38.9 L36.8,38.9 L36.8,38.9 Z" id="Shape" fill="#333333"></path>
                        <path d="M77.1,18.8 C88.5,18.8 92.3,26.6 92.3,26.6 L92.5,26.6 C92.5,26.6 92.3,25.1 92.3,23.3 L92.3,0.3 L101.8,0.3 L101.8,69.2 L92.8,69.2 L92.8,64.5 C92.8,62.6 92.9,61.2 92.9,61.2 L92.8,61.2 C92.8,61.2 88.8,70.4 76.6,70.4 C63.2,70.4 54.8,59.9 54.8,44.5 C54.8,28.9 64,18.8 77.1,18.8 L77.1,18.8 Z M78.4,62.3 C85.8,62.3 92.7,57.1 92.7,44.5 C92.7,35.7 88.1,26.9 78.7,26.9 C70.9,26.9 64.4,33.4 64.4,44.6 C64.5,55.4 70.2,62.3 78.4,62.3 L78.4,62.3 Z" id="Shape" fill="#333333"></path>
                        <path d="M116.6,0.3 L126.2,0.3 L126.2,10 L116.6,10 L116.6,0.3 L116.6,0.3 Z M116.7,19.9 L126.2,19.9 L126.2,69.3 L116.7,69.3 L116.7,19.9 L116.7,19.9 Z" id="Shape" fill="#333333"></path>
                        <path d="M173.9,27.5 L153,27.5 L153,69.3 L143.6,69.3 L143.6,27.5 L137.4,27.5 L137.4,19.9 L143.6,19.9 L143.6,18.2 C143.6,1.9 156,-0.1 162.1,-0.1 C164.2,-0.1 165.7,0.2 165.7,0.2 L165.7,8.3 C165.7,8.3 164.7,8.1 163.3,8.1 C159.7,8.1 153,9.3 153,18.4 L153,19.9 L183.3,19.9 L183.3,69.3 L173.8,69.3 L173.8,27.5 L173.9,27.5 L173.9,27.5 Z M173.8,0.3 L183.4,0.3 L183.4,10 L173.8,10 L173.8,0.3 L173.8,0.3 Z" id="Shape" fill="#333333"></path>
                        <path d="M221.2,18.8 C233.6,18.8 239.7,26 239.7,26 L235.2,32.6 C235.2,32.6 229.9,27 221.6,27 C211.6,27 204.4,34.5 204.4,44.6 C204.4,54.6 211.6,62.4 221.9,62.4 C231.1,62.4 237.1,55.8 237.1,55.8 L240.9,62.7 C240.9,62.7 234.1,70.6 221.2,70.6 C205.6,70.6 194.7,59.5 194.7,44.7 C194.7,30 205.6,18.8 221.2,18.8 L221.2,18.8 Z" id="Shape" fill="#333333"></path>
                        <path d="M277.4,38.5 L279.5,38.5 L279.5,37.6 C279.5,29.5 274.9,26.7 268.6,26.7 C260.9,26.7 254.9,31.5 254.9,31.5 L251,24.6 C251,24.6 258.1,18.7 269.4,18.7 C281.9,18.7 288.9,25.5 288.9,38.1 L288.9,69.3 L280.1,69.3 L280.1,64.6 C280.1,62.4 280.3,60.7 280.3,60.7 L280.1,60.7 C280.1,60.7 276.1,70.5 264.2,70.5 C255.7,70.5 247.4,65.3 247.4,55.5 C247.6,39.1 269.1,38.5 277.4,38.5 L277.4,38.5 Z M266.5,62.9 C274.5,62.9 279.7,54.5 279.7,47.1 L279.7,45.5 L277.2,45.5 C270.1,45.5 257.2,46 257.2,54.9 C257.2,59 260.3,62.9 266.5,62.9 L266.5,62.9 Z" id="Shape" fill="#333333"></path>
                        <path d="M302.6,19.2 L320.9,19.2 C330,19.2 336.7,25.4 336.7,34.9 C336.7,44.4 330.1,50.8 320.9,50.8 L309.7,50.8 L309.7,69.3 L302.7,69.3 L302.6,19.2 L302.6,19.2 Z M319.8,44.8 C325.8,44.8 329.5,41 329.5,35 C329.5,29 325.8,25.4 319.8,25.4 L309.6,25.4 L309.6,44.8 L319.8,44.8 L319.8,44.8 Z" id="Shape" fill="#DE5235"></path>
                        <path d="M345.7,19.2 L361,19.2 C366.3,19.2 368.5,19.7 370.4,20.3 C375.5,22.2 378.9,27.2 378.9,33.8 C378.9,40.2 375.4,45.6 369.9,47.3 L369.9,47.5 C369.9,47.5 370.5,48.1 371.4,49.8 L382,69.2 L374.1,69.2 L363.5,49.3 L352.8,49.3 L352.8,69.2 L345.8,69.2 L345.8,19.2 L345.7,19.2 Z M362.8,43.3 C368.2,43.3 371.6,39.8 371.6,34.2 C371.6,30.5 370.2,27.8 367.6,26.5 C366.2,25.8 364.7,25.4 360.7,25.4 L352.6,25.4 L352.6,43.4 L362.8,43.4 L362.8,43.3 Z" id="Shape" fill="#DE5235"></path>
                        <path d="M413.5,18.4 C428,18.4 439.2,29.6 439.2,43.9 C439.2,58.6 428,70.2 413.5,70.2 C399,70.2 387.8,58.7 387.8,43.9 C387.8,29.6 399,18.4 413.5,18.4 L413.5,18.4 Z M413.5,63.8 C423.7,63.8 431.9,55.3 431.9,44 C431.9,33 423.7,24.8 413.5,24.8 C403.3,24.8 395,33 395,44 C395,55.3 403.3,63.8 413.5,63.8 L413.5,63.8 Z" id="Shape" fill="#DE5235"></path>
                    </g>
                </g>
                <g id="Capa_2_1_" transform="translate(-0.250000, 0.125000)" fill="#DE5235">
                    <path d="M2.17821983,31.6679653 L55.1257174,0.921554545 C56.6337157,-2.26207941e-14 58.5606025,-2.26207941e-14 60.0686008,0.921554545 L113.016098,31.6679653 C114.524097,32.5057421 115.445651,34.1812959 115.445651,35.9406273 L115.445651,97.6010041 C115.445651,99.3603355 114.524097,101.035889 113.016098,101.873666 L60.0686008,132.620077 C58.5606025,133.541631 56.6337157,133.541631 55.1257174,132.620077 L2.17821983,101.873666 C0.670221488,101.035889 -0.251333058,99.3603355 -0.251333058,97.6010041 L-0.251333058,36.024405 C-0.335110744,34.1812959 0.586443802,32.5895198 2.17821983,31.6679653 L2.17821983,31.6679653 Z" id="Shape"></path>
                </g>
                <g id="Capa_3_1_" transform="translate(34.936628, 34.473851)" fill="#FFFFFF">
                    <path d="M44.4859512,25.6359719 L10.8073215,45.7426165 L22.2010868,53.0312752 L44.7372843,40.6321777 L44.9886174,52.7799421 L22.5361975,64.6763736 L0.335110744,52.5286091 L0.41888843,13.069319 L22.5361975,0.251333058 L44.6535066,13.4044298 L44.4859512,25.6359719 L44.4859512,25.6359719 Z M33.9299628,20.3579777 L22.9550859,12.7342083 L9.71821157,20.0228669 L9.71821157,33.6786298 L33.9299628,20.3579777 L33.9299628,20.3579777 Z" id="Shape"></path>
                </g>
            </g>
        </g>
    </g>
</svg>